<svg xmlns="http://www.w3.org/2000/svg" xmlns:xlink="http://www.w3.org/1999/xlink" xmlns:inkscape="http://www.inkscape.org/namespaces/inkscape" version="1.1" width="1080" height="1080" viewBox="0 0 1080 1080">
<defs>
<clipPath id="clip_0">
<path transform="matrix(1,0,0,-1,0,1080)" d="M0 1080H1080V0H0Z"/>
</clipPath>
</defs>
<g inkscape:groupmode="layer" inkscape:label="Layer 1">
<g clip-path="url(#clip_0)">
<path transform="matrix(1,0,0,-1,595.9639,557.6816)" d="M0 0C-5.01-2.762-10.188-5.256-15.517-7.462-33.854-15.058-53.952-19.25-75.021-19.25-96.091-19.25-116.189-15.058-134.527-7.462-141.849-4.43-148.889-.854-155.596 3.213L-162.208-15.382C-155.702-19.128-148.935-22.468-141.939-25.365-121.331-33.901-98.73-38.612-75.021-38.612-51.313-38.612-28.712-33.901-8.104-25.365 .42-21.835 8.605-17.647 16.39-12.868Z" fill="#971b1e"/>
<path transform="matrix(1,0,0,-1,587.8594,259.5918)" d="M0 0C-20.607 8.536-43.209 13.247-66.917 13.247-90.625 13.247-113.227 8.536-133.835 0-155.237-8.865-174.504-21.864-190.642-38.002-206.781-54.141-219.78-73.408-228.645-94.81-237.181-115.418-241.892-138.019-241.892-161.728-241.892-185.436-237.181-208.038-228.645-228.646-219.78-250.047-206.781-269.315-190.642-285.453-186.119-289.977-181.35-294.254-176.356-298.262L-173.812-274.814C-174.874-273.812-175.92-272.794-176.952-271.763-191.293-257.422-202.851-240.283-210.742-221.233-218.337-202.896-222.529-182.797-222.529-161.728-222.529-140.659-218.337-120.56-210.742-102.223-202.851-83.172-191.293-66.034-176.952-51.693-162.611-37.352-145.473-25.793-126.422-17.903-108.085-10.308-87.986-6.116-66.917-6.116-45.848-6.116-25.749-10.308-7.412-17.903 11.639-25.793 28.776-37.352 43.118-51.693 57.459-66.034 69.017-83.172 76.907-102.223 84.503-120.56 88.695-140.659 88.695-161.728 88.695-182.797 84.503-202.896 76.907-221.233 72.058-232.943 65.82-243.93 58.404-253.99L69.747-271.004C79.98-258.225 88.458-243.983 94.811-228.646 103.347-208.038 108.058-185.436 108.058-161.728 108.058-138.019 103.347-115.418 94.811-94.81 85.945-73.408 72.946-54.141 56.809-38.002 40.67-21.864 21.402-8.865 0 0"/>
<path transform="matrix(1,0,0,-1,401.2842,363.3423)" d="M0 0 67.036-42.339 5.292-239.92Z" fill-rule="evenodd"/>
<path transform="matrix(1,0,0,-1,409.2212,345.70069)" d="M0 0H202.875C258.649-10.525 257.554-88.565 204.639-103.201L173.248-111.612 277.85-261.972C251.214-241.657 125.707-152.217 115.389-133.023 107.353-118.074 97.53-88.583 124.371-61.744H175.31C190.166-61.744 189.89-40.575 175.31-40.575H68.801Z" fill-rule="evenodd"/>
<path transform="matrix(1,0,0,-1,331.3257,779.083)" d="M0 0H8.198V-6.832L-16.321-43.801-30.214-22.925V-53.139H-40.917V0H-32.718L-16.321-24.672ZM-2.505-53.139V-25.203L8.198-17.839V-53.139ZM52.865 .684C56.61 .684 60.102-.038 63.341-1.479 66.58-2.922 69.389-4.871 71.768-7.325 74.146-9.779 76.006-12.665 77.347-15.979 78.688-19.295 79.359-22.824 79.359-26.569 79.359-29.758 78.878-32.794 77.916-35.679 76.955-38.563 75.589-41.17 73.817-43.498 72.046-45.825 69.933-47.813 67.479-49.457 65.024-51.102 62.329-52.278 59.394-52.987L54.08-43.953C56.206-43.801 58.141-43.232 59.887-42.245 61.633-41.259 63.139-39.993 64.404-38.449 65.669-36.906 66.656-35.109 67.364-33.06 68.073-31.011 68.427-28.847 68.427-26.569 68.427-24.19 68.035-21.938 67.251-19.813 66.466-17.687 65.391-15.84 64.024-14.271 62.658-12.702 61.026-11.463 59.128-10.552 57.23-9.641 55.143-9.186 52.865-9.186 50.587-9.186 48.5-9.641 46.603-10.552 44.705-11.463 43.06-12.702 41.668-14.271 40.277-15.84 39.188-17.687 38.403-19.813 37.619-21.938 37.227-24.19 37.227-26.569 37.227-28.948 37.619-31.2 38.403-33.326 39.188-35.451 40.277-37.298 41.668-38.867 43.06-40.436 44.705-41.676 46.603-42.587 48.5-43.498 50.587-43.953 52.865-43.953V-53.822C49.12-53.822 45.628-53.114 42.389-51.696 39.15-50.28 36.341-48.331 33.962-45.852 31.584-43.371 29.724-40.474 28.383-37.159 27.042-33.845 26.371-30.314 26.371-26.569 26.371-22.824 27.042-19.295 28.383-15.979 29.724-12.665 31.584-9.779 33.962-7.325 36.341-4.871 39.15-2.922 42.389-1.479 45.628-.038 49.12 .684 52.865 .684M101.327 0 116.662-37.197 108.235-44.562 89.864 0ZM133.514 0H144.977L123.19-53.139H111.803ZM189.492-31.959H177.649L172.715-22.091H189.492ZM195.792 0 195.869-8.882H170.893L170.817-44.333H195.792V-53.139H160.189V0ZM235.221-22.091C237.65-22.748 239.889-23.482 241.939-24.292 243.989-25.102 245.76-26.089 247.253-27.253 248.747-28.416 249.91-29.809 250.746-31.428 251.58-33.047 251.999-34.971 251.999-37.197V-37.425C251.999-39.854 251.504-42.081 250.517-44.105 249.531-46.13 248.165-47.862 246.417-49.306 244.672-50.748 242.623-51.861 240.269-52.646 237.916-53.431 235.347-53.822 232.564-53.822 229.983-53.822 227.516-53.506 225.163-52.887 222.808-52.253 220.67-51.419 218.748-50.394 216.825-49.369 215.142-48.191 213.699-46.889 212.256-45.586 211.156-44.232 210.397-42.814L219.279-37.197C220.241-38.26 221.203-39.209 222.164-40.044 223.125-40.879 224.137-41.587 225.2-42.17 226.263-42.752 227.427-43.194 228.692-43.498 229.958-43.801 231.349-43.953 232.868-43.953 233.829-43.953 234.803-43.853 235.791-43.65 236.777-43.448 237.675-43.119 238.485-42.663 239.295-42.208 239.953-41.639 240.458-40.955 240.965-40.259 241.217-39.411 241.217-38.399 241.217-37.69 241.041-37.008 240.686-36.35 240.333-35.691 239.725-35.046 238.865-34.414 238.004-33.781 236.84-33.174 235.373-32.579 233.906-31.997 232.058-31.428 229.831-30.871 227.098-30.213 224.643-29.467 222.467-28.632 220.292-27.797 218.444-26.784 216.926-25.596 215.408-24.393 214.244-22.964 213.434-21.294 212.624-19.624 212.219-17.637 212.219-15.359 212.219-12.88 212.688-10.641 213.624-8.629 214.56-6.63 215.863-4.946 217.533-3.581 219.204-2.201 221.165-1.151 223.417-.418 225.668 .316 228.084 .684 230.666 .684 233.349 .684 235.778 .38 237.954-.228 240.129-.835 242.079-1.606 243.798-2.543 245.519-3.479 247.026-4.542 248.316-5.73 249.607-6.921 250.681-8.072 251.542-9.186L242.812-14.803C240.636-12.728 238.574-11.272 236.625-10.438 234.677-9.603 232.64-9.186 230.514-9.186 229.199-9.186 228.073-9.35 227.136-9.679 226.2-10.007 225.428-10.413 224.821-10.893 224.213-11.374 223.746-11.918 223.417-12.525 223.087-13.133 222.922-13.715 222.922-14.271 222.922-15.283 223.189-16.157 223.719-16.891 224.251-17.625 225.037-18.295 226.074-18.902 227.111-19.51 228.402-20.066 229.945-20.572 231.488-21.078 233.247-21.584 235.221-22.091M296.285 0 307.369-22.318 299.169-29.15 283.456 0ZM319.969 0H332.951L313.669-35.527V-53.139H302.585V-35.527L302.509-35.375 308.127-23.912ZM368.127 .684C371.873 .684 375.365-.038 378.603-1.479 381.842-2.922 384.651-4.871 387.03-7.325 389.409-9.779 391.268-12.665 392.61-15.979 393.951-19.295 394.622-22.824 394.622-26.569 394.622-29.758 394.141-32.794 393.178-35.679 392.217-38.563 390.851-41.17 389.08-43.498 387.309-45.825 385.196-47.813 382.741-49.457 380.287-51.102 377.591-52.278 374.656-52.987L369.342-43.953C371.468-43.801 373.404-43.232 375.15-42.245 376.896-41.259 378.401-39.993 379.667-38.449 380.932-36.906 381.918-35.109 382.626-33.06 383.335-31.011 383.69-28.847 383.69-26.569 383.69-24.19 383.297-21.938 382.513-19.813 381.729-17.687 380.654-15.84 379.287-14.271 377.92-12.702 376.289-11.463 374.391-10.552 372.493-9.641 370.405-9.186 368.127-9.186 365.85-9.186 363.763-9.641 361.865-10.552 359.967-11.463 358.323-12.702 356.93-14.271 355.54-15.84 354.451-17.687 353.666-19.813 352.881-21.938 352.49-24.19 352.49-26.569 352.49-28.948 352.881-31.2 353.666-33.326 354.451-35.451 355.54-37.298 356.93-38.867 358.323-40.436 359.967-41.676 361.865-42.587 363.763-43.498 365.85-43.953 368.127-43.953V-53.822C364.382-53.822 360.891-53.114 357.652-51.696 354.413-50.28 351.604-48.331 349.225-45.852 346.846-43.371 344.987-40.474 343.645-37.159 342.304-33.845 341.633-30.314 341.633-26.569 341.633-22.824 342.304-19.295 343.645-15.979 344.987-12.665 346.846-9.779 349.225-7.325 351.604-4.871 354.413-2.922 357.652-1.479 360.891-.038 364.382 .684 368.127 .684M423.194-31.2C423.194-33.021 423.51-34.729 424.143-36.324 424.775-37.919 425.649-39.311 426.762-40.5 427.875-41.688 429.178-42.638 430.671-43.346 432.164-44.055 433.746-44.409 435.416-44.409V-53.746C432.228-53.746 429.242-53.151 426.458-51.963 423.674-50.772 421.233-49.141 419.132-47.065 417.032-44.991 415.387-42.563 414.198-39.778 413.009-36.995 412.414-34.009 412.414-30.82V0H423.194V-30.82-30.973ZM458.266 0V-30.82C458.266-33.503 457.823-36.046 456.937-38.449 456.052-40.854 454.837-43.029 453.293-44.979 451.75-46.927 449.915-48.597 447.79-49.988 445.664-51.38 443.362-52.405 440.881-53.063L436.175-44.333C437.744-44.232 439.211-43.814 440.578-43.081 441.944-42.347 443.147-41.385 444.183-40.196 445.221-39.006 446.031-37.64 446.613-36.097 447.196-34.553 447.486-32.921 447.486-31.2 447.486-31.149 447.473-31.111 447.448-31.087 447.423-31.061 447.41-31.022 447.41-30.973 447.41-30.82 447.423-30.795 447.448-30.896 447.473-30.997 447.486-30.909 447.486-30.631V-28.809-24.026-14.879 0Z" fill="#971b1e"/>
<path transform="matrix(1,0,0,-1,0,1080)" d="M194.143 281.465H264.81V267.232H194.143ZM815.191 281.465H885.857V267.232H815.191Z" fill-rule="evenodd"/>
<path transform="matrix(1,0,0,-1,278.7446,747.11819)" d="M0 0H-27.235L-43.607 20.197-25.705 31.825ZM-24.328 35.191C-26.776 34.07-29.046 33.254-31.137 32.743-33.229 32.233-35.778 31.902-38.787 31.749-41.797 31.596-45.52 31.545-49.958 31.596-54.394 31.647-60.132 31.673-67.171 31.673V0H-88.745V107.105H-40.241C-35.039 107.105-30.168 106.111-25.629 104.122-21.089 102.133-17.111 99.43-13.694 96.013-10.277 92.596-7.574 88.566-5.584 83.925-3.596 79.283-2.602 74.361-2.602 69.16-2.602 61.51-4.616 54.675-8.645 48.656-12.674 42.639-17.902 38.15-24.328 35.191M-67.171 53.094H-40.241C-35.65 53.094-31.774 54.701-28.612 57.913-25.451 61.127-23.869 65.437-23.869 70.843-23.869 73.087-24.303 75.255-25.17 77.346-26.037 79.437-27.21 81.298-28.689 82.931-30.168 84.563-31.902 85.863-33.891 86.832-35.88 87.801-37.997 88.286-40.241 88.286H-67.171V53.553 53.4ZM23.867 107.105H46.206V0H23.867ZM133.113 53.706 170.447 0H144.283L120.261 34.886 107.254 53.706 70.38 107.105H96.391L120.261 68.089 143.977 107.105H170.141ZM70.074 0 99.146 41.925 118.424 32.132 96.085 0ZM271.125 0 263.168 18.973H214.206L206.096 0H183.145L227.059 107.105H250.163L221.855 38.1H255.364L240.217 74.82 257.507 89.662 294.076 0ZM416.786 42.995 406.84 62.887H440.808V42.995ZM381.441 107.259H453.814V89.051H403.015V0H381.441ZM477.681 107.105H500.021V0H477.681ZM579.736 107.105V107.105 0H557.703V88.439H526.183V107.105ZM582.949 107.105H611.255V88.439H592.282Z"/>
</g>
</g>
</svg>
