<?xml version="1.0" encoding="UTF-8"?>
<svg id="Layer_1" xmlns="http://www.w3.org/2000/svg" version="1.1" xmlns:inkscape="http://www.inkscape.org/namespaces/inkscape" xmlns:xlink="http://www.w3.org/1999/xlink" viewBox="0 0 828.6 646.17">
  <!-- Generator: Adobe Illustrator 29.7.1, SVG Export Plug-In . SVG Version: 2.1.1 Build 8)  -->
  <defs>
    <style>
      .st0 {
        fill: #971b1e;
      }

      .st1 {
        fill: none;
      }

      .st2 {
        fill-rule: evenodd;
      }

      .st3 {
        clip-path: url(#clippath);
      }
    </style>
    <clipPath id="clippath">
      <rect class="st1" x="-125.7" y="-216.91" width="1080" height="1080"/>
    </clipPath>
  </defs>
  <g inkscape:groupmode="layer" inkscape:label="Layer 1">
    <g class="st3">
      <g>
        <path class="st0" d="M470.26,340.77c-5.01,2.76-10.19,5.26-15.52,7.46-18.34,7.6-38.43,11.79-59.5,11.79s-41.17-4.19-59.51-11.79c-7.32-3.03-14.36-6.61-21.07-10.67l-6.61,18.6c6.51,3.75,13.27,7.09,20.27,9.98,20.61,8.54,43.21,13.25,66.92,13.25s46.31-4.71,66.92-13.25c8.52-3.53,16.71-7.72,24.49-12.5l-16.39-12.87Z"/>
        <path d="M462.16,42.68c-20.61-8.54-43.21-13.25-66.92-13.25s-46.31,4.71-66.92,13.25c-21.4,8.86-40.67,21.86-56.81,38-16.14,16.14-29.14,35.41-38,56.81-8.54,20.61-13.25,43.21-13.25,66.92s4.71,46.31,13.25,66.92c8.87,21.4,21.86,40.67,38,56.81,4.52,4.52,9.29,8.8,14.29,12.81l2.54-23.45c-1.06-1-2.11-2.02-3.14-3.05-14.34-14.34-25.9-31.48-33.79-50.53-7.6-18.34-11.79-38.44-11.79-59.51s4.19-41.17,11.79-59.5c7.89-19.05,19.45-36.19,33.79-50.53,14.34-14.34,31.48-25.9,50.53-33.79,18.34-7.6,38.44-11.79,59.5-11.79s41.17,4.19,59.5,11.79c19.05,7.89,36.19,19.45,50.53,33.79,14.34,14.34,25.9,31.48,33.79,50.53,7.6,18.34,11.79,38.44,11.79,59.5s-4.19,41.17-11.79,59.51c-4.85,11.71-11.09,22.7-18.5,32.76l11.34,17.01c10.23-12.78,18.71-27.02,25.06-42.36,8.54-20.61,13.25-43.21,13.25-66.92s-4.71-46.31-13.25-66.92c-8.87-21.4-21.86-40.67-38-56.81-16.14-16.14-35.41-29.14-56.81-38"/>
        <path class="st2" d="M275.58,146.43l67.04,42.34-61.74,197.58-5.29-239.92Z"/>
        <path class="st2" d="M283.52,128.79h202.88c55.77,10.52,54.68,88.57,1.76,103.2l-31.39,8.41,104.6,150.36c-26.64-20.31-152.14-109.75-162.46-128.95-8.04-14.95-17.86-44.44,8.98-71.28h50.94c14.86,0,14.58-21.17,0-21.17h-106.51l-68.8-40.58Z"/>
        <path class="st0" d="M205.62,562.17h8.2v6.83l-24.52,36.97-13.89-20.88v30.21h-10.7v-53.14h8.2l16.4,24.67,16.32-24.67ZM203.12,615.31v-27.94l10.7-7.36v35.3h-10.7ZM258.49,561.48c3.74,0,7.24.72,10.48,2.16,3.24,1.44,6.05,3.39,8.43,5.85,2.38,2.45,4.24,5.34,5.58,8.65,1.34,3.32,2.01,6.84,2.01,10.59,0,3.19-.48,6.22-1.44,9.11-.96,2.88-2.33,5.49-4.1,7.82-1.77,2.33-3.88,4.31-6.34,5.96-2.45,1.65-5.15,2.82-8.08,3.53l-5.31-9.03c2.13-.15,4.06-.72,5.81-1.71,1.75-.99,3.25-2.25,4.52-3.8,1.26-1.54,2.25-3.34,2.96-5.39.71-2.05,1.06-4.21,1.06-6.49s-.39-4.63-1.18-6.76c-.78-2.13-1.86-3.97-3.23-5.54-1.37-1.57-3-2.81-4.9-3.72-1.9-.91-3.98-1.37-6.26-1.37s-4.37.45-6.26,1.37c-1.9.91-3.54,2.15-4.94,3.72-1.39,1.57-2.48,3.42-3.26,5.54-.78,2.12-1.18,4.38-1.18,6.76s.39,4.63,1.18,6.76c.78,2.12,1.87,3.97,3.26,5.54,1.39,1.57,3.04,2.81,4.94,3.72,1.9.91,3.98,1.37,6.26,1.37v9.87c-3.75,0-7.24-.71-10.48-2.13-3.24-1.42-6.05-3.36-8.43-5.84-2.38-2.48-4.24-5.38-5.58-8.69-1.34-3.31-2.01-6.85-2.01-10.59s.67-7.27,2.01-10.59c1.34-3.31,3.2-6.2,5.58-8.65,2.38-2.45,5.19-4.4,8.43-5.85,3.24-1.44,6.73-2.16,10.48-2.16M306.95,562.17l15.33,37.2-8.43,7.37-18.37-44.56h11.46ZM339.14,562.17h11.46l-21.79,53.14h-11.39l21.71-53.14ZM395.12,594.13h-11.84l-4.93-9.87h16.78v9.87ZM401.42,562.17l.08,8.88h-24.98l-.08,35.45h24.98v8.81h-35.6v-53.14h35.6ZM440.84,584.26c2.43.66,4.67,1.39,6.72,2.2,2.05.81,3.82,1.8,5.31,2.96,1.49,1.16,2.66,2.56,3.49,4.17.83,1.62,1.25,3.54,1.25,5.77v.23c0,2.43-.49,4.66-1.48,6.68-.99,2.03-2.35,3.76-4.1,5.2-1.75,1.44-3.79,2.56-6.15,3.34-2.35.78-4.92,1.18-7.71,1.18-2.58,0-5.05-.32-7.4-.93-2.35-.63-4.49-1.47-6.41-2.49-1.92-1.03-3.61-2.2-5.05-3.51-1.44-1.3-2.54-2.66-3.3-4.08l8.88-5.62c.96,1.06,1.92,2.01,2.88,2.85.96.84,1.97,1.54,3.04,2.13,1.06.58,2.23,1.02,3.49,1.33,1.27.3,2.66.45,4.18.45.96,0,1.93-.1,2.92-.3.99-.2,1.88-.53,2.69-.99.81-.45,1.47-1.02,1.97-1.71.51-.7.76-1.54.76-2.56,0-.71-.18-1.39-.53-2.05-.35-.66-.96-1.3-1.82-1.94-.86-.63-2.03-1.24-3.49-1.84-1.47-.58-3.32-1.15-5.54-1.71-2.73-.66-5.19-1.4-7.36-2.24-2.17-.83-4.02-1.85-5.54-3.04-1.52-1.2-2.68-2.63-3.49-4.3-.81-1.67-1.22-3.66-1.22-5.94,0-2.48.47-4.72,1.4-6.73.94-2,2.24-3.68,3.91-5.05,1.67-1.38,3.63-2.43,5.88-3.16,2.25-.73,4.67-1.1,7.25-1.1s5.11.3,7.29.91c2.18.61,4.12,1.38,5.84,2.31,1.72.94,3.23,2,4.52,3.19,1.29,1.19,2.37,2.34,3.23,3.46l-8.73,5.62c-2.18-2.08-4.24-3.53-6.19-4.37-1.95-.84-3.99-1.25-6.11-1.25-1.32,0-2.44.16-3.38.49-.94.33-1.71.73-2.32,1.21-.61.48-1.07,1.03-1.4,1.63-.33.61-.5,1.19-.5,1.75,0,1.01.27,1.89.8,2.62.53.73,1.32,1.4,2.36,2.01,1.04.61,2.33,1.16,3.87,1.67,1.54.51,3.3,1.01,5.28,1.52M501.91,562.17l11.08,22.32-8.2,6.83-15.71-29.15h12.83ZM525.59,562.17h12.98l-19.28,35.53v17.61h-11.08v-17.61l-.08-.15,5.62-11.46,11.84-23.91ZM573.75,561.48c3.75,0,7.24.72,10.48,2.16,3.24,1.44,6.05,3.39,8.43,5.85,2.38,2.45,4.24,5.34,5.58,8.65,1.34,3.32,2.01,6.84,2.01,10.59,0,3.19-.48,6.22-1.44,9.11-.96,2.88-2.33,5.49-4.1,7.82-1.77,2.33-3.88,4.31-6.34,5.96-2.45,1.65-5.15,2.82-8.08,3.53l-5.31-9.03c2.13-.15,4.06-.72,5.81-1.71,1.75-.99,3.25-2.25,4.52-3.8,1.27-1.54,2.25-3.34,2.96-5.39.71-2.05,1.06-4.21,1.06-6.49s-.39-4.63-1.18-6.76c-.78-2.13-1.86-3.97-3.23-5.54-1.37-1.57-3-2.81-4.9-3.72-1.9-.91-3.99-1.37-6.26-1.37s-4.36.45-6.26,1.37c-1.9.91-3.54,2.15-4.93,3.72-1.39,1.57-2.48,3.42-3.26,5.54-.78,2.12-1.18,4.38-1.18,6.76s.39,4.63,1.18,6.76c.79,2.12,1.87,3.97,3.26,5.54,1.39,1.57,3.04,2.81,4.93,3.72,1.9.91,3.99,1.37,6.26,1.37v9.87c-3.75,0-7.24-.71-10.48-2.13-3.24-1.42-6.05-3.36-8.43-5.84-2.38-2.48-4.24-5.38-5.58-8.69-1.34-3.31-2.01-6.85-2.01-10.59s.67-7.27,2.01-10.59c1.34-3.31,3.2-6.2,5.58-8.65,2.38-2.45,5.19-4.4,8.43-5.85,3.24-1.44,6.73-2.16,10.48-2.16M628.82,593.37c0,1.82.32,3.53.95,5.12.63,1.59,1.51,2.99,2.62,4.18,1.11,1.19,2.42,2.14,3.91,2.85,1.49.71,3.08,1.06,4.74,1.06v9.34c-3.19,0-6.17-.59-8.96-1.78-2.78-1.19-5.23-2.82-7.33-4.9-2.1-2.07-3.74-4.5-4.93-7.29-1.19-2.78-1.78-5.77-1.78-8.96v-30.82h10.78v31.2ZM663.89,562.17v30.82c0,2.68-.44,5.23-1.33,7.63-.89,2.4-2.1,4.58-3.64,6.53-1.54,1.95-3.38,3.62-5.5,5.01-2.13,1.39-4.43,2.42-6.91,3.08l-4.71-8.73c1.57-.1,3.04-.52,4.4-1.25,1.37-.73,2.57-1.7,3.61-2.89,1.04-1.19,1.85-2.56,2.43-4.1.58-1.54.87-3.18.87-4.9,0-.05-.01-.09-.04-.11-.02-.03-.04-.07-.04-.11,0-.15.01-.18.04-.08s.04.01.04-.26v-30.63h10.78Z"/>
        <path class="st2" d="M68.44,581.62h70.67v14.23h-70.67v-14.23ZM689.49,581.62h70.67v14.23h-70.67v-14.23Z"/>
        <path d="M153.04,530.2h-27.24l-16.37-20.2,17.9-11.63,25.7,31.83ZM128.71,495.01c-2.45,1.12-4.72,1.94-6.81,2.45-2.09.51-4.64.84-7.65.99-3.01.15-6.73.2-11.17.15-4.44-.05-10.17-.08-17.21-.08v31.67h-21.57v-107.11h48.5c5.2,0,10.07.99,14.61,2.98,4.54,1.99,8.52,4.69,11.93,8.11s6.12,7.45,8.11,12.09c1.99,4.64,2.98,9.56,2.98,14.76,0,7.65-2.01,14.49-6.04,20.5-4.03,6.02-9.26,10.51-15.68,13.46M85.87,477.11h26.93c4.59,0,8.47-1.61,11.63-4.82,3.16-3.21,4.74-7.52,4.74-12.93,0-2.24-.43-4.41-1.3-6.5-.87-2.09-2.04-3.95-3.52-5.58-1.48-1.63-3.21-2.93-5.2-3.9-1.99-.97-4.11-1.45-6.35-1.45h-26.93v35.19ZM176.91,423.1h22.34v107.11h-22.34v-107.11ZM286.16,476.5l37.33,53.71h-26.16l-24.02-34.89-13.01-18.82-36.87-53.4h26.01l23.87,39.02,23.72-39.02h26.16l-37.03,53.4ZM223.12,530.2l29.07-41.92,19.28,9.79-22.34,32.13h-26.01ZM424.17,530.2l-7.96-18.97h-48.96l-8.11,18.97h-22.95l43.91-107.11h23.1l-28.31,69.01h33.51l-15.15-36.72,17.29-14.84,36.57,89.66h-22.95ZM569.83,487.21l-9.95-19.89h33.97v19.89h-24.02ZM534.48,422.94h72.37v18.21h-50.8v89.05h-21.57v-107.26ZM630.72,423.1h22.34v107.11h-22.34v-107.11ZM732.78,423.1h0v107.11h-22.03v-88.44h-31.52v-18.67h53.55ZM735.99,423.1h28.31v18.67h-18.97l-9.33-18.67Z"/>
      </g>
    </g>
  </g>
</svg>